<svg width="296" height="50" viewBox="0 0 296 50" fill="none" xmlns="http://www.w3.org/2000/svg">
<rect x="0.5" y="1.37756" width="295" height="47.2449" rx="5.5" fill="#4267B2" stroke="black"/>
<path d="M91.66 26.3H98.38V28.9H91.66V26.3ZM91.9 34H88.66V20H99.24V22.6H91.9V34ZM99.027 34L105.267 20H108.467L114.727 34H111.327L106.207 21.64H107.487L102.347 34H99.027ZM102.147 31L103.007 28.54H110.207L111.087 31H102.147ZM122.684 34.24C121.604 34.24 120.598 34.0667 119.664 33.72C118.744 33.36 117.944 32.8533 117.264 32.2C116.584 31.5467 116.051 30.78 115.664 29.9C115.291 29.02 115.104 28.0533 115.104 27C115.104 25.9467 115.291 24.98 115.664 24.1C116.051 23.22 116.584 22.4533 117.264 21.8C117.958 21.1467 118.764 20.6467 119.684 20.3C120.604 19.94 121.611 19.76 122.704 19.76C123.918 19.76 125.011 19.9733 125.984 20.4C126.971 20.8133 127.798 21.4267 128.464 22.24L126.384 24.16C125.904 23.6133 125.371 23.2067 124.784 22.94C124.198 22.66 123.558 22.52 122.864 22.52C122.211 22.52 121.611 22.6267 121.064 22.84C120.518 23.0533 120.044 23.36 119.644 23.76C119.244 24.16 118.931 24.6333 118.704 25.18C118.491 25.7267 118.384 26.3333 118.384 27C118.384 27.6667 118.491 28.2733 118.704 28.82C118.931 29.3667 119.244 29.84 119.644 30.24C120.044 30.64 120.518 30.9467 121.064 31.16C121.611 31.3733 122.211 31.48 122.864 31.48C123.558 31.48 124.198 31.3467 124.784 31.08C125.371 30.8 125.904 30.38 126.384 29.82L128.464 31.74C127.798 32.5533 126.971 33.1733 125.984 33.6C125.011 34.0267 123.911 34.24 122.684 34.24ZM133.632 25.64H140.372V28.16H133.632V25.64ZM133.872 31.4H141.492V34H130.652V20H141.232V22.6H133.872V31.4ZM144.07 34V20H150.91C152.67 20 153.99 20.3333 154.87 21C155.763 21.6667 156.21 22.5467 156.21 23.64C156.21 24.3733 156.03 25.0133 155.67 25.56C155.31 26.0933 154.817 26.5067 154.19 26.8C153.563 27.0933 152.843 27.24 152.03 27.24L152.41 26.42C153.29 26.42 154.07 26.5667 154.75 26.86C155.43 27.14 155.957 27.56 156.33 28.12C156.717 28.68 156.91 29.3667 156.91 30.18C156.91 31.38 156.437 32.32 155.49 33C154.543 33.6667 153.15 34 151.31 34H144.07ZM147.29 31.56H151.07C151.91 31.56 152.543 31.4267 152.97 31.16C153.41 30.88 153.63 30.44 153.63 29.84C153.63 29.2533 153.41 28.82 152.97 28.54C152.543 28.2467 151.91 28.1 151.07 28.1H147.05V25.74H150.51C151.297 25.74 151.897 25.6067 152.31 25.34C152.737 25.06 152.95 24.64 152.95 24.08C152.95 23.5333 152.737 23.1267 152.31 22.86C151.897 22.58 151.297 22.44 150.51 22.44H147.29V31.56ZM166.163 34.24C165.056 34.24 164.03 34.06 163.083 33.7C162.15 33.34 161.336 32.8333 160.643 32.18C159.963 31.5267 159.43 30.76 159.043 29.88C158.67 29 158.483 28.04 158.483 27C158.483 25.96 158.67 25 159.043 24.12C159.43 23.24 159.97 22.4733 160.663 21.82C161.356 21.1667 162.17 20.66 163.103 20.3C164.036 19.94 165.05 19.76 166.143 19.76C167.25 19.76 168.263 19.94 169.183 20.3C170.116 20.66 170.923 21.1667 171.603 21.82C172.296 22.4733 172.836 23.24 173.223 24.12C173.61 24.9867 173.803 25.9467 173.803 27C173.803 28.04 173.61 29.0067 173.223 29.9C172.836 30.78 172.296 31.5467 171.603 32.2C170.923 32.84 170.116 33.34 169.183 33.7C168.263 34.06 167.256 34.24 166.163 34.24ZM166.143 31.48C166.77 31.48 167.343 31.3733 167.863 31.16C168.396 30.9467 168.863 30.64 169.263 30.24C169.663 29.84 169.97 29.3667 170.183 28.82C170.41 28.2733 170.523 27.6667 170.523 27C170.523 26.3333 170.41 25.7267 170.183 25.18C169.97 24.6333 169.663 24.16 169.263 23.76C168.876 23.36 168.416 23.0533 167.883 22.84C167.35 22.6267 166.77 22.52 166.143 22.52C165.516 22.52 164.936 22.6267 164.403 22.84C163.883 23.0533 163.423 23.36 163.023 23.76C162.623 24.16 162.31 24.6333 162.083 25.18C161.87 25.7267 161.763 26.3333 161.763 27C161.763 27.6533 161.87 28.26 162.083 28.82C162.31 29.3667 162.616 29.84 163.003 30.24C163.403 30.64 163.87 30.9467 164.403 31.16C164.936 31.3733 165.516 31.48 166.143 31.48ZM183.038 34.24C181.931 34.24 180.905 34.06 179.958 33.7C179.025 33.34 178.211 32.8333 177.518 32.18C176.838 31.5267 176.305 30.76 175.918 29.88C175.545 29 175.358 28.04 175.358 27C175.358 25.96 175.545 25 175.918 24.12C176.305 23.24 176.845 22.4733 177.538 21.82C178.231 21.1667 179.045 20.66 179.978 20.3C180.911 19.94 181.925 19.76 183.018 19.76C184.125 19.76 185.138 19.94 186.058 20.3C186.991 20.66 187.798 21.1667 188.478 21.82C189.171 22.4733 189.711 23.24 190.098 24.12C190.485 24.9867 190.678 25.9467 190.678 27C190.678 28.04 190.485 29.0067 190.098 29.9C189.711 30.78 189.171 31.5467 188.478 32.2C187.798 32.84 186.991 33.34 186.058 33.7C185.138 34.06 184.131 34.24 183.038 34.24ZM183.018 31.48C183.645 31.48 184.218 31.3733 184.738 31.16C185.271 30.9467 185.738 30.64 186.138 30.24C186.538 29.84 186.845 29.3667 187.058 28.82C187.285 28.2733 187.398 27.6667 187.398 27C187.398 26.3333 187.285 25.7267 187.058 25.18C186.845 24.6333 186.538 24.16 186.138 23.76C185.751 23.36 185.291 23.0533 184.758 22.84C184.225 22.6267 183.645 22.52 183.018 22.52C182.391 22.52 181.811 22.6267 181.278 22.84C180.758 23.0533 180.298 23.36 179.898 23.76C179.498 24.16 179.185 24.6333 178.958 25.18C178.745 25.7267 178.638 26.3333 178.638 27C178.638 27.6533 178.745 28.26 178.958 28.82C179.185 29.3667 179.491 29.84 179.878 30.24C180.278 30.64 180.745 30.9467 181.278 31.16C181.811 31.3733 182.391 31.48 183.018 31.48ZM196.013 30.8L195.833 27.06L202.533 20H206.133L200.093 26.5L198.293 28.42L196.013 30.8ZM193.113 34V20H196.333V34H193.113ZM202.693 34L197.713 27.9L199.833 25.6L206.473 34H202.693Z" fill="white"/>
<path d="M91.66 26.3V25.3H90.66V26.3H91.66ZM98.38 26.3H99.38V25.3H98.38V26.3ZM98.38 28.9V29.9H99.38V28.9H98.38ZM91.66 28.9H90.66V29.9H91.66V28.9ZM91.9 34V35H92.9V34H91.9ZM88.66 34H87.66V35H88.66V34ZM88.66 20V19H87.66V20H88.66ZM99.24 20H100.24V19H99.24V20ZM99.24 22.6V23.6H100.24V22.6H99.24ZM91.9 22.6V21.6H90.9V22.6H91.9ZM91.66 27.3H98.38V25.3H91.66V27.3ZM97.38 26.3V28.9H99.38V26.3H97.38ZM98.38 27.9H91.66V29.9H98.38V27.9ZM92.66 28.9V26.3H90.66V28.9H92.66ZM91.9 33H88.66V35H91.9V33ZM89.66 34V20H87.66V34H89.66ZM88.66 21H99.24V19H88.66V21ZM98.24 20V22.6H100.24V20H98.24ZM99.24 21.6H91.9V23.6H99.24V21.6ZM90.9 22.6V34H92.9V22.6H90.9ZM99.027 34L98.1137 33.5929L97.4865 35H99.027V34ZM105.267 20V19H104.618L104.354 19.5929L105.267 20ZM108.467 20L109.38 19.5918L109.115 19H108.467V20ZM114.727 34V35H116.27L115.64 33.5918L114.727 34ZM111.327 34L110.403 34.3827L110.659 35H111.327V34ZM106.207 21.64V20.64H104.71L105.283 22.0227L106.207 21.64ZM107.487 21.64L108.41 22.024L108.986 20.64H107.487V21.64ZM102.347 34V35H103.014L103.27 34.384L102.347 34ZM102.147 31L101.203 30.67L100.738 32H102.147V31ZM103.007 28.54V27.54H102.297L102.063 28.21L103.007 28.54ZM110.207 28.54L111.149 28.2032L110.911 27.54H110.207V28.54ZM111.087 31V32H112.507L112.029 30.6632L111.087 31ZM99.9404 34.4071L106.18 20.4071L104.354 19.5929L98.1137 33.5929L99.9404 34.4071ZM105.267 21H108.467V19H105.267V21ZM107.554 20.4082L113.814 34.4082L115.64 33.5918L109.38 19.5918L107.554 20.4082ZM114.727 33H111.327V35H114.727V33ZM112.251 33.6173L107.131 21.2573L105.283 22.0227L110.403 34.3827L112.251 33.6173ZM106.207 22.64H107.487V20.64H106.207V22.64ZM106.564 21.256L101.424 33.616L103.27 34.384L108.41 22.024L106.564 21.256ZM102.347 33H99.027V35H102.347V33ZM103.091 31.33L103.951 28.87L102.063 28.21L101.203 30.67L103.091 31.33ZM103.007 29.54H110.207V27.54H103.007V29.54ZM109.265 28.8768L110.145 31.3368L112.029 30.6632L111.149 28.2032L109.265 28.8768ZM111.087 30H102.147V32H111.087V30ZM119.664 33.72L119.3 34.6512L119.308 34.6544L119.316 34.6574L119.664 33.72ZM117.264 32.2L116.571 32.9211L117.264 32.2ZM115.664 29.9L114.744 30.2906L114.749 30.3023L115.664 29.9ZM115.664 24.1L114.749 23.6977L114.744 23.7094L115.664 24.1ZM117.264 21.8L116.578 21.0722L116.571 21.0789L117.264 21.8ZM119.684 20.3L120.037 21.2358L120.049 21.2312L119.684 20.3ZM125.984 20.4L125.583 21.3159L125.59 21.3192L125.598 21.3223L125.984 20.4ZM128.464 22.24L129.142 22.9748L129.835 22.3353L129.238 21.6061L128.464 22.24ZM126.384 24.16L125.633 24.8198L126.309 25.5902L127.062 24.8948L126.384 24.16ZM124.784 22.94L124.353 23.8425L124.362 23.8465L124.37 23.8504L124.784 22.94ZM119.644 23.76L120.351 24.4671L119.644 23.76ZM118.704 25.18L117.78 24.797L117.776 24.8067L117.773 24.8165L118.704 25.18ZM118.704 28.82L117.773 29.1835L117.776 29.1933L117.78 29.203L118.704 28.82ZM119.644 30.24L118.937 30.9471H118.937L119.644 30.24ZM124.784 31.08L125.198 31.9904L125.207 31.9865L125.215 31.9825L124.784 31.08ZM126.384 29.82L127.062 29.0852L126.3 28.3815L125.625 29.1692L126.384 29.82ZM128.464 31.74L129.238 32.3739L129.835 31.6447L129.142 31.0052L128.464 31.74ZM125.984 33.6L125.587 32.6821L125.583 32.6841L125.984 33.6ZM122.684 33.24C121.713 33.24 120.825 33.0845 120.012 32.7826L119.316 34.6574C120.37 35.0489 121.495 35.24 122.684 35.24V33.24ZM120.029 32.7888C119.225 32.4743 118.538 32.037 117.957 31.4789L116.571 32.9211C117.351 33.6697 118.264 34.2457 119.3 34.6512L120.029 32.7888ZM117.957 31.4789C117.373 30.918 116.915 30.2603 116.58 29.4977L114.749 30.3023C115.187 31.2997 115.795 32.1753 116.571 32.9211L117.957 31.4789ZM116.585 29.5094C116.269 28.765 116.104 27.9329 116.104 27H114.104C114.104 28.1738 114.313 29.275 114.744 30.2905L116.585 29.5094ZM116.104 27C116.104 26.0671 116.269 25.235 116.585 24.4905L114.744 23.7094C114.313 24.725 114.104 25.8262 114.104 27H116.104ZM116.58 24.5023C116.915 23.7397 117.373 23.082 117.957 22.5211L116.571 21.0789C115.795 21.8247 115.187 22.7003 114.749 23.6977L116.58 24.5023ZM117.95 22.5278C118.544 21.968 119.237 21.5373 120.037 21.2358L119.332 19.3642C118.292 19.756 117.371 20.3253 116.578 21.0722L117.95 22.5278ZM120.049 21.2312C120.841 20.9213 121.722 20.76 122.704 20.76V18.76C121.499 18.76 120.368 18.9587 119.32 19.3688L120.049 21.2312ZM122.704 20.76C123.799 20.76 124.753 20.952 125.583 21.3159L126.386 19.4841C125.269 18.9946 124.036 18.76 122.704 18.76V20.76ZM125.598 21.3223C126.437 21.6737 127.13 22.1891 127.691 22.8739L129.238 21.6061C128.466 20.6642 127.505 19.953 126.371 19.4777L125.598 21.3223ZM127.786 21.5052L125.706 23.4252L127.062 24.8948L129.142 22.9748L127.786 21.5052ZM127.136 23.5002C126.574 22.8608 125.929 22.3621 125.198 22.0296L124.37 23.8504C124.812 24.0513 125.234 24.3659 125.633 24.8198L127.136 23.5002ZM125.215 22.0375C124.485 21.6891 123.696 21.52 122.864 21.52V23.52C123.419 23.52 123.91 23.6309 124.353 23.8425L125.215 22.0375ZM122.864 21.52C122.101 21.52 121.376 21.645 120.701 21.9084L121.428 23.7716C121.846 23.6083 122.321 23.52 122.864 23.52V21.52ZM120.701 21.9084C120.03 22.1701 119.439 22.5515 118.937 23.0529L120.351 24.4671C120.65 24.1685 121.005 23.9366 121.428 23.7716L120.701 21.9084ZM118.937 23.0529C118.44 23.5499 118.055 24.1348 117.78 24.797L119.628 25.563C119.807 25.1319 120.048 24.7701 120.351 24.4671L118.937 23.0529ZM117.773 24.8165C117.508 25.4937 117.384 26.2257 117.384 27H119.384C119.384 26.4409 119.473 25.9597 119.636 25.5435L117.773 24.8165ZM117.384 27C117.384 27.7743 117.508 28.5063 117.773 29.1835L119.636 28.4565C119.473 28.0403 119.384 27.5591 119.384 27H117.384ZM117.78 29.203C118.055 29.8652 118.44 30.4501 118.937 30.9471L120.351 29.5329C120.048 29.2299 119.807 28.8681 119.628 28.437L117.78 29.203ZM118.937 30.9471C119.439 31.4485 120.03 31.8299 120.701 32.0916L121.428 30.2284C121.005 30.0634 120.65 29.8315 120.351 29.5329L118.937 30.9471ZM120.701 32.0916C121.376 32.355 122.101 32.48 122.864 32.48V30.48C122.321 30.48 121.846 30.3917 121.428 30.2284L120.701 32.0916ZM122.864 32.48C123.689 32.48 124.472 32.3205 125.198 31.9904L124.37 30.1696C123.923 30.3728 123.426 30.48 122.864 30.48V32.48ZM125.215 31.9825C125.943 31.6348 126.585 31.1224 127.143 30.4708L125.625 29.1692C125.224 29.6376 124.798 29.9652 124.353 30.1775L125.215 31.9825ZM125.706 30.5548L127.786 32.4748L129.142 31.0052L127.062 29.0852L125.706 30.5548ZM127.691 31.1061C127.128 31.7933 126.431 32.3173 125.587 32.6821L126.381 34.5179C127.511 34.0294 128.468 33.3134 129.238 32.3739L127.691 31.1061ZM125.583 32.6841C124.754 33.0474 123.794 33.24 122.684 33.24V35.24C124.028 35.24 125.268 35.0059 126.386 34.5159L125.583 32.6841ZM133.632 25.64V24.64H132.632V25.64H133.632ZM140.372 25.64H141.372V24.64H140.372V25.64ZM140.372 28.16V29.16H141.372V28.16H140.372ZM133.632 28.16H132.632V29.16H133.632V28.16ZM133.872 31.4H132.872V32.4H133.872V31.4ZM141.492 31.4H142.492V30.4H141.492V31.4ZM141.492 34V35H142.492V34H141.492ZM130.652 34H129.652V35H130.652V34ZM130.652 20V19H129.652V20H130.652ZM141.232 20H142.232V19H141.232V20ZM141.232 22.6V23.6H142.232V22.6H141.232ZM133.872 22.6V21.6H132.872V22.6H133.872ZM133.632 26.64H140.372V24.64H133.632V26.64ZM139.372 25.64V28.16H141.372V25.64H139.372ZM140.372 27.16H133.632V29.16H140.372V27.16ZM134.632 28.16V25.64H132.632V28.16H134.632ZM133.872 32.4H141.492V30.4H133.872V32.4ZM140.492 31.4V34H142.492V31.4H140.492ZM141.492 33H130.652V35H141.492V33ZM131.652 34V20H129.652V34H131.652ZM130.652 21H141.232V19H130.652V21ZM140.232 20V22.6H142.232V20H140.232ZM141.232 21.6H133.872V23.6H141.232V21.6ZM132.872 22.6V31.4H134.872V22.6H132.872ZM144.07 34H143.07V35H144.07V34ZM144.07 20V19H143.07V20H144.07ZM154.87 21L154.266 21.7971L154.272 21.8014L154.87 21ZM155.67 25.56L156.499 26.1195L156.505 26.11L155.67 25.56ZM154.19 26.8L154.614 27.7057V27.7057L154.19 26.8ZM152.03 27.24L151.123 26.8195L150.465 28.24H152.03V27.24ZM152.41 26.42V25.42H151.771L151.503 25.9995L152.41 26.42ZM154.75 26.86L154.354 27.7782L154.362 27.7815L154.369 27.7847L154.75 26.86ZM156.33 28.12L155.498 28.6747L155.503 28.6815L155.507 28.6882L156.33 28.12ZM155.49 33L156.066 33.8176L156.074 33.8122L155.49 33ZM147.29 31.56H146.29V32.56H147.29V31.56ZM152.97 31.16L153.5 32.008L153.507 32.0037L152.97 31.16ZM152.97 28.54L152.404 29.364L152.418 29.3741L152.433 29.3837L152.97 28.54ZM147.05 28.1H146.05V29.1H147.05V28.1ZM147.05 25.74V24.74H146.05V25.74H147.05ZM152.31 25.34L152.852 26.1803L152.859 26.176L152.31 25.34ZM152.31 22.86L151.749 23.6879L151.765 23.6982L151.78 23.708L152.31 22.86ZM147.29 22.44V21.44H146.29V22.44H147.29ZM145.07 34V20H143.07V34H145.07ZM144.07 21H150.91V19H144.07V21ZM150.91 21C152.572 21 153.636 21.3198 154.266 21.7971L155.474 20.2029C154.344 19.3469 152.768 19 150.91 19V21ZM154.272 21.8014C154.918 22.2837 155.21 22.8695 155.21 23.64H157.21C157.21 22.2239 156.609 21.0496 155.468 20.1986L154.272 21.8014ZM155.21 23.64C155.21 24.2022 155.075 24.6458 154.835 25.01L156.505 26.11C156.986 25.3808 157.21 24.5445 157.21 23.64H155.21ZM154.841 25.0005C154.59 25.3727 154.242 25.6717 153.766 25.8943L154.614 27.7057C155.392 27.3417 156.03 26.814 156.499 26.1195L154.841 25.0005ZM153.766 25.8943C153.294 26.1156 152.722 26.24 152.03 26.24V28.24C152.965 28.24 153.833 28.0711 154.614 27.7057L153.766 25.8943ZM152.937 27.6605L153.317 26.8405L151.503 25.9995L151.123 26.8195L152.937 27.6605ZM152.41 27.42C153.179 27.42 153.82 27.548 154.354 27.7782L155.146 25.9418C154.32 25.5853 153.401 25.42 152.41 25.42V27.42ZM154.369 27.7847C154.883 27.9963 155.245 28.2955 155.498 28.6747L157.162 27.5653C156.668 26.8245 155.977 26.2837 155.131 25.9353L154.369 27.7847ZM155.507 28.6882C155.758 29.0507 155.91 29.5292 155.91 30.18H157.91C157.91 29.2041 157.676 28.3093 157.153 27.5518L155.507 28.6882ZM155.91 30.18C155.91 31.0693 155.583 31.7022 154.907 32.1878L156.074 33.8122C157.291 32.9378 157.91 31.6907 157.91 30.18H155.91ZM154.914 32.1824C154.209 32.6791 153.056 33 151.31 33V35C153.244 35 154.878 34.6543 156.066 33.8176L154.914 32.1824ZM151.31 33H144.07V35H151.31V33ZM147.29 32.56H151.07V30.56H147.29V32.56ZM151.07 32.56C151.986 32.56 152.841 32.4201 153.5 32.008L152.44 30.312C152.246 30.4332 151.835 30.56 151.07 30.56V32.56ZM153.507 32.0037C154.283 31.5099 154.63 30.7215 154.63 29.84H152.63C152.63 30.1585 152.537 30.2501 152.433 30.3163L153.507 32.0037ZM154.63 29.84C154.63 28.9619 154.276 28.1855 153.507 27.6963L152.433 29.3837C152.545 29.4545 152.63 29.5447 152.63 29.84H154.63ZM153.537 27.716C152.869 27.2568 151.998 27.1 151.07 27.1V29.1C151.823 29.1 152.218 29.2366 152.404 29.364L153.537 27.716ZM151.07 27.1H147.05V29.1H151.07V27.1ZM148.05 28.1V25.74H146.05V28.1H148.05ZM147.05 26.74H150.51V24.74H147.05V26.74ZM150.51 26.74C151.384 26.74 152.207 26.5964 152.852 26.1803L151.768 24.4997C151.586 24.6169 151.21 24.74 150.51 24.74V26.74ZM152.859 26.176C153.598 25.6909 153.95 24.9381 153.95 24.08H151.95C151.95 24.3419 151.875 24.4291 151.761 24.504L152.859 26.176ZM153.95 24.08C153.95 23.2243 153.588 22.4796 152.84 22.012L151.78 23.708C151.885 23.7738 151.95 23.8424 151.95 24.08H153.95ZM152.871 22.0321C152.222 21.5924 151.391 21.44 150.51 21.44V23.44C151.203 23.44 151.572 23.5676 151.749 23.6879L152.871 22.0321ZM150.51 21.44H147.29V23.44H150.51V21.44ZM146.29 22.44V31.56H148.29V22.44H146.29ZM163.083 33.7L162.723 34.633L162.728 34.6347L163.083 33.7ZM160.643 32.18L159.95 32.9011L159.957 32.9078L160.643 32.18ZM159.043 29.88L158.122 30.2706L158.128 30.2823L159.043 29.88ZM159.043 24.12L158.128 23.7177L158.123 23.7294L159.043 24.12ZM163.103 20.3L162.743 19.367V19.367L163.103 20.3ZM169.183 20.3L168.819 21.2313L168.823 21.233L169.183 20.3ZM171.603 21.82L170.91 22.5411L170.917 22.5478L171.603 21.82ZM173.223 24.12L172.308 24.5223L172.31 24.5274L173.223 24.12ZM173.223 29.9L174.139 30.3023L174.141 30.2972L173.223 29.9ZM171.603 32.2L172.288 32.9282L172.289 32.9278L171.603 32.2ZM169.183 33.7L168.823 32.767L168.819 32.7688L169.183 33.7ZM167.863 31.16L167.492 30.2315L167.484 30.2348L167.863 31.16ZM169.263 30.24L168.556 29.5329V29.5329L169.263 30.24ZM170.183 28.82L169.259 28.437L169.255 28.4467L169.252 28.4565L170.183 28.82ZM170.183 25.18L169.252 25.5435L169.255 25.5533L169.259 25.563L170.183 25.18ZM169.263 23.76L168.544 24.455L168.55 24.4611L168.556 24.4671L169.263 23.76ZM167.883 22.84L167.512 23.7685L167.883 22.84ZM164.403 22.84L164.032 21.9115L164.024 21.9148L164.403 22.84ZM163.023 23.76L163.73 24.4671L163.023 23.76ZM162.083 25.18L161.159 24.797L161.155 24.8067L161.152 24.8165L162.083 25.18ZM162.083 28.82L161.149 29.176L161.154 29.1896L161.159 29.203L162.083 28.82ZM163.003 30.24L162.284 30.935L162.29 30.9411L162.296 30.9471L163.003 30.24ZM164.403 31.16L164.032 32.0885H164.032L164.403 31.16ZM166.163 33.24C165.167 33.24 164.262 33.0783 163.439 32.7653L162.728 34.6347C163.798 35.0417 164.946 35.24 166.163 35.24V33.24ZM163.443 32.767C162.624 32.4513 161.923 32.0123 161.329 31.4522L159.957 32.9078C160.75 33.6544 161.675 34.2287 162.723 34.633L163.443 32.767ZM161.336 31.4589C160.752 30.898 160.294 30.2403 159.959 29.4777L158.128 30.2823C158.566 31.2797 159.174 32.1553 159.95 32.9011L161.336 31.4589ZM159.964 29.4894C159.647 28.7435 159.483 27.9177 159.483 27H157.483C157.483 28.1623 157.692 29.2565 158.123 30.2705L159.964 29.4894ZM159.483 27C159.483 26.0823 159.647 25.2565 159.964 24.5105L158.123 23.7294C157.692 24.7435 157.483 25.8377 157.483 27H159.483ZM159.959 24.5223C160.292 23.764 160.754 23.1083 161.349 22.5478L159.977 21.0922C159.185 21.8384 158.568 22.716 158.128 23.7177L159.959 24.5223ZM161.349 22.5478C161.943 21.9877 162.644 21.5487 163.463 21.233L162.743 19.367C161.695 19.7713 160.77 20.3456 159.977 21.0922L161.349 22.5478ZM163.463 21.233C164.271 20.9212 165.161 20.76 166.143 20.76V18.76C164.938 18.76 163.802 18.9588 162.743 19.367L163.463 21.233ZM166.143 20.76C167.14 20.76 168.028 20.9218 168.819 21.2312L169.548 19.3688C168.498 18.9582 167.36 18.76 166.143 18.76V20.76ZM168.823 21.233C169.64 21.5481 170.332 21.9853 170.91 22.5411L172.296 21.0989C171.514 20.348 170.593 19.7719 169.543 19.367L168.823 21.233ZM170.917 22.5478C171.512 23.1083 171.974 23.764 172.308 24.5223L174.139 23.7177C173.699 22.716 173.081 21.8384 172.289 21.0922L170.917 22.5478ZM172.31 24.5274C172.633 25.2524 172.803 26.0715 172.803 27H174.803C174.803 25.8218 174.586 24.7209 174.136 23.7126L172.31 24.5274ZM172.803 27C172.803 27.9128 172.634 28.7433 172.305 29.5028L174.141 30.2972C174.585 29.2701 174.803 28.1672 174.803 27H172.803ZM172.308 29.4977C171.974 30.256 171.512 30.9117 170.917 31.4722L172.289 32.9278C173.081 32.1816 173.699 31.304 174.139 30.3023L172.308 29.4977ZM170.918 31.4718C170.339 32.0169 169.645 32.4502 168.823 32.767L169.543 34.633C170.588 34.2298 171.508 33.6631 172.288 32.9282L170.918 31.4718ZM168.819 32.7688C168.027 33.0787 167.145 33.24 166.163 33.24V35.24C167.368 35.24 168.5 35.0413 169.548 34.6312L168.819 32.7688ZM166.143 32.48C166.885 32.48 167.589 32.3533 168.243 32.0852L167.484 30.2348C167.097 30.3934 166.655 30.48 166.143 30.48V32.48ZM168.235 32.0885C168.892 31.8256 169.473 31.4444 169.97 30.9471L168.556 29.5329C168.253 29.8356 167.901 30.0677 167.492 30.2315L168.235 32.0885ZM169.97 30.9471C170.472 30.4457 170.853 29.8541 171.115 29.1835L169.252 28.4565C169.087 28.8792 168.855 29.2343 168.556 29.5329L169.97 30.9471ZM171.107 29.203C171.39 28.5205 171.523 27.7815 171.523 27H169.523C169.523 27.5518 169.43 28.0262 169.259 28.437L171.107 29.203ZM171.523 27C171.523 26.2185 171.39 25.4795 171.107 24.797L169.259 25.563C169.43 25.9738 169.523 26.4482 169.523 27H171.523ZM171.115 24.8165C170.853 24.1459 170.472 23.5543 169.97 23.0529L168.556 24.4671C168.855 24.7657 169.087 25.1208 169.252 25.5435L171.115 24.8165ZM169.982 23.065C169.494 22.5602 168.915 22.1755 168.255 21.9115L167.512 23.7685C167.918 23.9311 168.259 24.1598 168.544 24.455L169.982 23.065ZM168.255 21.9115C167.593 21.6468 166.885 21.52 166.143 21.52V23.52C166.654 23.52 167.107 23.6065 167.512 23.7685L168.255 21.9115ZM166.143 21.52C165.401 21.52 164.694 21.6468 164.032 21.9115L164.775 23.7685C165.179 23.6065 165.632 23.52 166.143 23.52V21.52ZM164.024 21.9148C163.38 22.1788 162.809 22.5599 162.316 23.0529L163.73 24.4671C164.037 24.1601 164.386 23.9279 164.783 23.7652L164.024 21.9148ZM162.316 23.0529C161.819 23.5499 161.434 24.1348 161.159 24.797L163.007 25.563C163.186 25.1319 163.427 24.7701 163.73 24.4671L162.316 23.0529ZM161.152 24.8165C160.887 25.4937 160.763 26.2257 160.763 27H162.763C162.763 26.4409 162.852 25.9597 163.015 25.5435L161.152 24.8165ZM160.763 27C160.763 27.764 160.888 28.4925 161.149 29.176L163.018 28.464C162.851 28.0275 162.763 27.5427 162.763 27H160.763ZM161.159 29.203C161.431 29.8581 161.805 30.4392 162.284 30.935L163.722 29.545C163.428 29.2408 163.189 28.8752 163.007 28.437L161.159 29.203ZM162.296 30.9471C162.793 31.4444 163.375 31.8256 164.032 32.0885L164.775 30.2315C164.365 30.0677 164.013 29.8356 163.71 29.5329L162.296 30.9471ZM164.032 32.0885C164.694 32.3532 165.401 32.48 166.143 32.48V30.48C165.632 30.48 165.179 30.3935 164.775 30.2315L164.032 32.0885ZM179.958 33.7L179.598 34.633L179.603 34.6347L179.958 33.7ZM177.518 32.18L176.825 32.9011L176.832 32.9078L177.518 32.18ZM175.918 29.88L174.997 30.2706L175.003 30.2823L175.918 29.88ZM175.918 24.12L175.003 23.7177L174.998 23.7294L175.918 24.12ZM179.978 20.3L179.618 19.367V19.367L179.978 20.3ZM186.058 20.3L185.694 21.2313L185.698 21.233L186.058 20.3ZM188.478 21.82L187.785 22.5411L187.792 22.5478L188.478 21.82ZM190.098 24.12L189.183 24.5223L189.185 24.5274L190.098 24.12ZM190.098 29.9L191.014 30.3023L191.016 30.2972L190.098 29.9ZM188.478 32.2L189.163 32.9282L189.164 32.9278L188.478 32.2ZM186.058 33.7L185.698 32.767L185.694 32.7688L186.058 33.7ZM184.738 31.16L184.367 30.2315L184.359 30.2348L184.738 31.16ZM186.138 30.24L185.431 29.5329V29.5329L186.138 30.24ZM187.058 28.82L186.134 28.437L186.13 28.4467L186.127 28.4565L187.058 28.82ZM187.058 25.18L186.127 25.5435L186.13 25.5533L186.134 25.563L187.058 25.18ZM186.138 23.76L185.419 24.455L185.425 24.4611L185.431 24.4671L186.138 23.76ZM184.758 22.84L184.387 23.7685L184.758 22.84ZM181.278 22.84L180.907 21.9115L180.899 21.9148L181.278 22.84ZM179.898 23.76L180.605 24.4671L179.898 23.76ZM178.958 25.18L178.034 24.797L178.03 24.8067L178.027 24.8165L178.958 25.18ZM178.958 28.82L178.024 29.176L178.029 29.1896L178.034 29.203L178.958 28.82ZM179.878 30.24L179.159 30.935L179.165 30.9411L179.171 30.9471L179.878 30.24ZM181.278 31.16L180.907 32.0885H180.907L181.278 31.16ZM183.038 33.24C182.042 33.24 181.137 33.0783 180.314 32.7653L179.603 34.6347C180.673 35.0417 181.821 35.24 183.038 35.24V33.24ZM180.318 32.767C179.499 32.4513 178.798 32.0123 178.204 31.4522L176.832 32.9078C177.625 33.6544 178.55 34.2287 179.598 34.633L180.318 32.767ZM178.211 31.4589C177.627 30.898 177.169 30.2403 176.834 29.4777L175.003 30.2823C175.441 31.2797 176.049 32.1553 176.825 32.9011L178.211 31.4589ZM176.839 29.4894C176.522 28.7435 176.358 27.9177 176.358 27H174.358C174.358 28.1623 174.567 29.2565 174.998 30.2705L176.839 29.4894ZM176.358 27C176.358 26.0823 176.522 25.2565 176.839 24.5105L174.998 23.7294C174.567 24.7435 174.358 25.8377 174.358 27H176.358ZM176.834 24.5223C177.167 23.764 177.629 23.1083 178.224 22.5478L176.852 21.0922C176.06 21.8384 175.443 22.716 175.003 23.7177L176.834 24.5223ZM178.224 22.5478C178.818 21.9877 179.519 21.5487 180.338 21.233L179.618 19.367C178.57 19.7713 177.645 20.3456 176.852 21.0922L178.224 22.5478ZM180.338 21.233C181.146 20.9212 182.036 20.76 183.018 20.76V18.76C181.813 18.76 180.677 18.9588 179.618 19.367L180.338 21.233ZM183.018 20.76C184.015 20.76 184.903 20.9218 185.694 21.2312L186.423 19.3688C185.373 18.9582 184.235 18.76 183.018 18.76V20.76ZM185.698 21.233C186.515 21.5481 187.207 21.9853 187.785 22.5411L189.171 21.0989C188.389 20.348 187.468 19.7719 186.418 19.367L185.698 21.233ZM187.792 22.5478C188.387 23.1083 188.849 23.764 189.183 24.5223L191.014 23.7177C190.574 22.716 189.956 21.8384 189.164 21.0922L187.792 22.5478ZM189.185 24.5274C189.508 25.2524 189.678 26.0715 189.678 27H191.678C191.678 25.8218 191.461 24.7209 191.011 23.7126L189.185 24.5274ZM189.678 27C189.678 27.9128 189.509 28.7433 189.18 29.5028L191.016 30.2972C191.46 29.2701 191.678 28.1672 191.678 27H189.678ZM189.183 29.4977C188.849 30.256 188.387 30.9117 187.792 31.4722L189.164 32.9278C189.956 32.1816 190.574 31.304 191.014 30.3023L189.183 29.4977ZM187.793 31.4718C187.214 32.0169 186.52 32.4502 185.698 32.767L186.418 34.633C187.463 34.2298 188.383 33.6631 189.163 32.9282L187.793 31.4718ZM185.694 32.7688C184.902 33.0787 184.02 33.24 183.038 33.24V35.24C184.243 35.24 185.375 35.0413 186.423 34.6312L185.694 32.7688ZM183.018 32.48C183.76 32.48 184.464 32.3533 185.118 32.0852L184.359 30.2348C183.972 30.3934 183.53 30.48 183.018 30.48V32.48ZM185.11 32.0885C185.767 31.8256 186.348 31.4444 186.845 30.9471L185.431 29.5329C185.128 29.8356 184.776 30.0677 184.367 30.2315L185.11 32.0885ZM186.845 30.9471C187.347 30.4457 187.728 29.8541 187.99 29.1835L186.127 28.4565C185.962 28.8792 185.73 29.2343 185.431 29.5329L186.845 30.9471ZM187.982 29.203C188.265 28.5205 188.398 27.7815 188.398 27H186.398C186.398 27.5518 186.305 28.0262 186.134 28.437L187.982 29.203ZM188.398 27C188.398 26.2185 188.265 25.4795 187.982 24.797L186.134 25.563C186.305 25.9738 186.398 26.4482 186.398 27H188.398ZM187.99 24.8165C187.728 24.1459 187.347 23.5543 186.845 23.0529L185.431 24.4671C185.73 24.7657 185.962 25.1208 186.127 25.5435L187.99 24.8165ZM186.857 23.065C186.369 22.5602 185.79 22.1755 185.13 21.9115L184.387 23.7685C184.793 23.9311 185.134 24.1598 185.419 24.455L186.857 23.065ZM185.13 21.9115C184.468 21.6468 183.76 21.52 183.018 21.52V23.52C183.529 23.52 183.982 23.6065 184.387 23.7685L185.13 21.9115ZM183.018 21.52C182.276 21.52 181.569 21.6468 180.907 21.9115L181.65 23.7685C182.054 23.6065 182.507 23.52 183.018 23.52V21.52ZM180.899 21.9148C180.255 22.1788 179.684 22.5599 179.191 23.0529L180.605 24.4671C180.912 24.1601 181.261 23.9279 181.658 23.7652L180.899 21.9148ZM179.191 23.0529C178.694 23.5499 178.309 24.1348 178.034 24.797L179.882 25.563C180.061 25.1319 180.302 24.7701 180.605 24.4671L179.191 23.0529ZM178.027 24.8165C177.762 25.4937 177.638 26.2257 177.638 27H179.638C179.638 26.4409 179.727 25.9597 179.89 25.5435L178.027 24.8165ZM177.638 27C177.638 27.764 177.763 28.4925 178.024 29.176L179.893 28.464C179.726 28.0275 179.638 27.5427 179.638 27H177.638ZM178.034 29.203C178.306 29.8581 178.68 30.4392 179.159 30.935L180.597 29.545C180.303 29.2408 180.064 28.8752 179.882 28.437L178.034 29.203ZM179.171 30.9471C179.668 31.4444 180.25 31.8256 180.907 32.0885L181.65 30.2315C181.24 30.0677 180.888 29.8356 180.585 29.5329L179.171 30.9471ZM180.907 32.0885C181.569 32.3532 182.276 32.48 183.018 32.48V30.48C182.507 30.48 182.054 30.3935 181.65 30.2315L180.907 32.0885ZM196.013 30.8L195.014 30.8481L195.126 33.1715L196.735 31.4918L196.013 30.8ZM195.833 27.06L195.108 26.3716L194.814 26.6814L194.834 27.1081L195.833 27.06ZM202.533 20V19H202.104L201.808 19.3116L202.533 20ZM206.133 20L206.866 20.6807L208.427 19H206.133V20ZM200.093 26.5L200.823 27.1839L200.826 27.1807L200.093 26.5ZM198.293 28.42L199.015 29.1118L199.023 29.1039L198.293 28.42ZM193.113 34H192.113V35H193.113V34ZM193.113 20V19H192.113V20H193.113ZM196.333 20H197.333V19H196.333V20ZM196.333 34V35H197.333V34H196.333ZM202.693 34L201.918 34.6324L202.219 35H202.693V34ZM197.713 27.9L196.978 27.2223L196.39 27.8603L196.938 28.5324L197.713 27.9ZM199.833 25.6L200.618 24.9799L199.891 24.0612L199.098 24.9223L199.833 25.6ZM206.473 34V35H208.538L207.258 33.3799L206.473 34ZM197.012 30.7519L196.832 27.0119L194.834 27.1081L195.014 30.8481L197.012 30.7519ZM196.558 27.7484L203.258 20.6884L201.808 19.3116L195.108 26.3716L196.558 27.7484ZM202.533 21H206.133V19H202.533V21ZM205.401 19.3193L199.361 25.8193L200.826 27.1807L206.866 20.6807L205.401 19.3193ZM199.364 25.8161L197.564 27.7361L199.023 29.1039L200.823 27.1839L199.364 25.8161ZM197.571 27.7282L195.291 30.1082L196.735 31.4918L199.015 29.1118L197.571 27.7282ZM194.113 34V20H192.113V34H194.113ZM193.113 21H196.333V19H193.113V21ZM195.333 20V34H197.333V20H195.333ZM196.333 33H193.113V35H196.333V33ZM203.468 33.3676L198.488 27.2676L196.938 28.5324L201.918 34.6324L203.468 33.3676ZM198.448 28.5777L200.568 26.2777L199.098 24.9223L196.978 27.2223L198.448 28.5777ZM199.049 26.2201L205.689 34.6201L207.258 33.3799L200.618 24.9799L199.049 26.2201ZM206.473 33H202.693V35H206.473V33Z" fill="black"/>
</svg>
