<svg width="296" height="49" viewBox="0 0 296 49" fill="none" xmlns="http://www.w3.org/2000/svg">
<rect x="0.5" y="0.5" width="295" height="47.2449" rx="5.5" fill="#DEDEDE" stroke="black"/>
<path d="M122.42 33.24C121.313 33.24 120.293 33.0667 119.36 32.72C118.44 32.36 117.633 31.8533 116.94 31.2C116.26 30.5467 115.727 29.78 115.34 28.9C114.967 28.02 114.78 27.0533 114.78 26C114.78 24.9467 114.967 23.98 115.34 23.1C115.727 22.22 116.267 21.4533 116.96 20.8C117.653 20.1467 118.467 19.6467 119.4 19.3C120.333 18.94 121.36 18.76 122.48 18.76C123.72 18.76 124.833 18.9667 125.82 19.38C126.82 19.7933 127.66 20.3933 128.34 21.18L126.26 23.1C125.753 22.5667 125.2 22.1733 124.6 21.92C124 21.6533 123.347 21.52 122.64 21.52C121.96 21.52 121.34 21.6267 120.78 21.84C120.22 22.0533 119.733 22.36 119.32 22.76C118.92 23.16 118.607 23.6333 118.38 24.18C118.167 24.7267 118.06 25.3333 118.06 26C118.06 26.6533 118.167 27.2533 118.38 27.8C118.607 28.3467 118.92 28.8267 119.32 29.24C119.733 29.64 120.213 29.9467 120.76 30.16C121.32 30.3733 121.933 30.48 122.6 30.48C123.24 30.48 123.86 30.38 124.46 30.18C125.073 29.9667 125.667 29.6133 126.24 29.12L128.08 31.46C127.32 32.0333 126.433 32.4733 125.42 32.78C124.42 33.0867 123.42 33.24 122.42 33.24ZM125.12 31.04V25.78H128.08V31.46L125.12 31.04ZM135.99 33.16C134.843 33.16 133.823 32.92 132.93 32.44C132.05 31.96 131.35 31.3067 130.83 30.48C130.323 29.64 130.07 28.6867 130.07 27.62C130.07 26.54 130.323 25.5867 130.83 24.76C131.35 23.92 132.05 23.2667 132.93 22.8C133.823 22.32 134.843 22.08 135.99 22.08C137.123 22.08 138.136 22.32 139.03 22.8C139.923 23.2667 140.623 23.9133 141.13 24.74C141.636 25.5667 141.89 26.5267 141.89 27.62C141.89 28.6867 141.636 29.64 141.13 30.48C140.623 31.3067 139.923 31.96 139.03 32.44C138.136 32.92 137.123 33.16 135.99 33.16ZM135.99 30.6C136.51 30.6 136.976 30.48 137.39 30.24C137.803 30 138.13 29.66 138.37 29.22C138.61 28.7667 138.73 28.2333 138.73 27.62C138.73 26.9933 138.61 26.46 138.37 26.02C138.13 25.58 137.803 25.24 137.39 25C136.976 24.76 136.51 24.64 135.99 24.64C135.47 24.64 135.003 24.76 134.59 25C134.176 25.24 133.843 25.58 133.59 26.02C133.35 26.46 133.23 26.9933 133.23 27.62C133.23 28.2333 133.35 28.7667 133.59 29.22C133.843 29.66 134.176 30 134.59 30.24C135.003 30.48 135.47 30.6 135.99 30.6ZM149.095 33.16C147.948 33.16 146.928 32.92 146.035 32.44C145.155 31.96 144.455 31.3067 143.935 30.48C143.428 29.64 143.175 28.6867 143.175 27.62C143.175 26.54 143.428 25.5867 143.935 24.76C144.455 23.92 145.155 23.2667 146.035 22.8C146.928 22.32 147.948 22.08 149.095 22.08C150.228 22.08 151.242 22.32 152.135 22.8C153.028 23.2667 153.728 23.9133 154.235 24.74C154.742 25.5667 154.995 26.5267 154.995 27.62C154.995 28.6867 154.742 29.64 154.235 30.48C153.728 31.3067 153.028 31.96 152.135 32.44C151.242 32.92 150.228 33.16 149.095 33.16ZM149.095 30.6C149.615 30.6 150.082 30.48 150.495 30.24C150.908 30 151.235 29.66 151.475 29.22C151.715 28.7667 151.835 28.2333 151.835 27.62C151.835 26.9933 151.715 26.46 151.475 26.02C151.235 25.58 150.908 25.24 150.495 25C150.082 24.76 149.615 24.64 149.095 24.64C148.575 24.64 148.108 24.76 147.695 25C147.282 25.24 146.948 25.58 146.695 26.02C146.455 26.46 146.335 26.9933 146.335 27.62C146.335 28.2333 146.455 28.7667 146.695 29.22C146.948 29.66 147.282 30 147.695 30.24C148.108 30.48 148.575 30.6 149.095 30.6ZM162.141 37.04C161.127 37.04 160.147 36.9133 159.201 36.66C158.267 36.42 157.487 36.0533 156.861 35.56L158.101 33.32C158.554 33.6933 159.127 33.9867 159.821 34.2C160.527 34.4267 161.221 34.54 161.901 34.54C163.007 34.54 163.807 34.2933 164.301 33.8C164.807 33.3067 165.061 32.5733 165.061 31.6V29.98L165.261 27.28L165.221 24.56V22.24H168.181V31.2C168.181 33.2 167.661 34.6733 166.621 35.62C165.581 36.5667 164.087 37.04 162.141 37.04ZM161.661 32.48C160.661 32.48 159.754 32.2667 158.941 31.84C158.141 31.4 157.494 30.7933 157.001 30.02C156.521 29.2333 156.281 28.32 156.281 27.28C156.281 26.2267 156.521 25.3133 157.001 24.54C157.494 23.7533 158.141 23.1467 158.941 22.72C159.754 22.2933 160.661 22.08 161.661 22.08C162.567 22.08 163.367 22.2667 164.061 22.64C164.754 23 165.294 23.5667 165.681 24.34C166.067 25.1 166.261 26.08 166.261 27.28C166.261 28.4667 166.067 29.4467 165.681 30.22C165.294 30.98 164.754 31.5467 164.061 31.92C163.367 32.2933 162.567 32.48 161.661 32.48ZM162.281 29.92C162.827 29.92 163.314 29.8133 163.741 29.6C164.167 29.3733 164.501 29.06 164.741 28.66C164.981 28.26 165.101 27.8 165.101 27.28C165.101 26.7467 164.981 26.2867 164.741 25.9C164.501 25.5 164.167 25.1933 163.741 24.98C163.314 24.7533 162.827 24.64 162.281 24.64C161.734 24.64 161.247 24.7533 160.821 24.98C160.394 25.1933 160.054 25.5 159.801 25.9C159.561 26.2867 159.441 26.7467 159.441 27.28C159.441 27.8 159.561 28.26 159.801 28.66C160.054 29.06 160.394 29.3733 160.821 29.6C161.247 29.8133 161.734 29.92 162.281 29.92ZM171.085 33V18.16H174.205V33H171.085ZM182.44 33.16C181.213 33.16 180.133 32.92 179.2 32.44C178.28 31.96 177.567 31.3067 177.06 30.48C176.553 29.64 176.3 28.6867 176.3 27.62C176.3 26.54 176.547 25.5867 177.04 24.76C177.547 23.92 178.233 23.2667 179.1 22.8C179.967 22.32 180.947 22.08 182.04 22.08C183.093 22.08 184.04 22.3067 184.88 22.76C185.733 23.2 186.407 23.84 186.9 24.68C187.393 25.5067 187.64 26.5 187.64 27.66C187.64 27.78 187.633 27.92 187.62 28.08C187.607 28.2267 187.593 28.3667 187.58 28.5H178.84V26.68H185.94L184.74 27.22C184.74 26.66 184.627 26.1733 184.4 25.76C184.173 25.3467 183.86 25.0267 183.46 24.8C183.06 24.56 182.593 24.44 182.06 24.44C181.527 24.44 181.053 24.56 180.64 24.8C180.24 25.0267 179.927 25.3533 179.7 25.78C179.473 26.1933 179.36 26.6867 179.36 27.26V27.74C179.36 28.3267 179.487 28.8467 179.74 29.3C180.007 29.74 180.373 30.08 180.84 30.32C181.32 30.5467 181.88 30.66 182.52 30.66C183.093 30.66 183.593 30.5733 184.02 30.4C184.46 30.2267 184.86 29.9667 185.22 29.62L186.88 31.42C186.387 31.98 185.767 32.4133 185.02 32.72C184.273 33.0133 183.413 33.16 182.44 33.16Z" fill="white"/>
<path d="M119.36 32.72L118.996 33.6512L119.004 33.6544L119.012 33.6574L119.36 32.72ZM116.94 31.2L116.247 31.9211L116.254 31.9278L116.94 31.2ZM115.34 28.9L114.419 29.2906L114.424 29.3023L115.34 28.9ZM115.34 23.1L114.424 22.6977L114.419 22.7094L115.34 23.1ZM116.96 20.8L117.646 21.5278L117.646 21.5278L116.96 20.8ZM119.4 19.3L119.748 20.2375L119.76 20.233L119.4 19.3ZM125.82 19.38L125.434 20.3023L125.438 20.3042L125.82 19.38ZM128.34 21.18L129.018 21.9148L129.729 21.2583L129.097 20.526L128.34 21.18ZM126.26 23.1L125.535 23.7887L126.214 24.5034L126.938 23.8348L126.26 23.1ZM124.6 21.92L124.194 22.8338L124.202 22.8376L124.211 22.8412L124.6 21.92ZM119.32 22.76L118.625 22.0414L118.619 22.0471L118.613 22.0529L119.32 22.76ZM118.38 24.18L117.456 23.797L117.452 23.8067L117.448 23.8165L118.38 24.18ZM118.38 27.8L117.448 28.1635L117.452 28.1733L117.456 28.183L118.38 27.8ZM119.32 29.24L118.601 29.9354L118.613 29.9472L118.625 29.9586L119.32 29.24ZM120.76 30.16L120.396 31.0916L120.404 31.0945L120.76 30.16ZM124.46 30.18L124.776 31.1288L124.789 31.1245L124.46 30.18ZM126.24 29.12L127.026 28.5019L126.38 27.6803L125.588 28.362L126.24 29.12ZM128.08 31.46L128.682 32.2583L129.497 31.6439L128.866 30.8419L128.08 31.46ZM125.42 32.78L125.13 31.8229L125.127 31.8239L125.42 32.78ZM125.12 31.04H124.12V31.9081L124.98 32.0301L125.12 31.04ZM125.12 25.78V24.78H124.12V25.78H125.12ZM128.08 25.78H129.08V24.78H128.08V25.78ZM128.08 31.46L127.94 32.4501L129.08 32.6119V31.46H128.08ZM122.42 32.24C121.419 32.24 120.518 32.0835 119.708 31.7826L119.012 33.6574C120.068 34.0498 121.208 34.24 122.42 34.24V32.24ZM119.724 31.7888C118.919 31.4736 118.223 31.0345 117.626 30.4722L116.254 31.9278C117.044 32.6721 117.961 33.2464 118.996 33.6512L119.724 31.7888ZM117.633 30.4789C117.049 29.918 116.591 29.2603 116.256 28.4977L114.424 29.3023C114.863 30.2997 115.471 31.1753 116.247 31.9211L117.633 30.4789ZM116.261 28.5094C115.945 27.765 115.78 26.9329 115.78 26H113.78C113.78 27.1738 113.989 28.275 114.419 29.2905L116.261 28.5094ZM115.78 26C115.78 25.0671 115.945 24.235 116.261 23.4905L114.419 22.7094C113.989 23.725 113.78 24.8262 113.78 26H115.78ZM116.256 23.5023C116.589 22.744 117.051 22.0883 117.646 21.5278L116.274 20.0722C115.482 20.8184 114.865 21.696 114.424 22.6977L116.256 23.5023ZM117.646 21.5278C118.237 20.9703 118.935 20.5396 119.748 20.2374L119.052 18.3626C117.999 18.7537 117.069 19.323 116.274 20.0722L117.646 21.5278ZM119.76 20.233C120.565 19.9223 121.468 19.76 122.48 19.76V17.76C121.252 17.76 120.101 17.9577 119.04 18.367L119.76 20.233ZM122.48 19.76C123.608 19.76 124.587 19.9478 125.434 20.3023L126.206 18.4577C125.079 17.9856 123.832 17.76 122.48 17.76V19.76ZM125.438 20.3042C126.3 20.6604 127.01 21.1702 127.583 21.834L129.097 20.526C128.31 19.6165 127.34 18.9263 126.202 18.4558L125.438 20.3042ZM127.662 20.4452L125.582 22.3652L126.938 23.8348L129.018 21.9148L127.662 20.4452ZM126.985 22.4113C126.396 21.791 125.731 21.3121 124.989 20.9987L124.211 22.8412C124.669 23.0345 125.111 23.3423 125.535 23.7887L126.985 22.4113ZM125.006 21.0062C124.269 20.6785 123.476 20.52 122.64 20.52V22.52C123.218 22.52 123.731 22.6282 124.194 22.8338L125.006 21.0062ZM122.64 20.52C121.855 20.52 121.112 20.6434 120.424 20.9055L121.136 22.7745C121.568 22.6099 122.065 22.52 122.64 22.52V20.52ZM120.424 20.9055C119.743 21.165 119.139 21.5432 118.625 22.0414L120.015 23.4786C120.327 23.1768 120.697 22.9417 121.136 22.7745L120.424 20.9055ZM118.613 22.0529C118.116 22.5499 117.731 23.1348 117.456 23.797L119.304 24.563C119.483 24.1319 119.724 23.7701 120.027 23.4671L118.613 22.0529ZM117.448 23.8165C117.184 24.4937 117.06 25.2257 117.06 26H119.06C119.06 25.4409 119.149 24.9597 119.312 24.5435L117.448 23.8165ZM117.06 26C117.06 26.7637 117.185 27.4886 117.448 28.1635L119.312 27.4365C119.148 27.0181 119.06 26.543 119.06 26H117.06ZM117.456 28.183C117.73 28.8424 118.111 29.4291 118.601 29.9354L120.039 28.5446C119.729 28.2242 119.484 27.851 119.304 27.417L117.456 28.183ZM118.625 29.9586C119.135 30.4528 119.729 30.831 120.396 31.0916L121.124 29.2284C120.698 29.0623 120.331 28.8272 120.015 28.5214L118.625 29.9586ZM120.404 31.0945C121.09 31.3557 121.825 31.48 122.6 31.48V29.48C122.041 29.48 121.55 29.3909 121.116 29.2255L120.404 31.0945ZM122.6 31.48C123.346 31.48 124.073 31.3631 124.776 31.1287L124.144 29.2313C123.647 29.3969 123.134 29.48 122.6 29.48V31.48ZM124.789 31.1245C125.538 30.8637 126.239 30.44 126.892 29.878L125.588 28.362C125.094 28.7867 124.608 29.0697 124.131 29.2355L124.789 31.1245ZM125.454 29.7381L127.294 32.0781L128.866 30.8419L127.026 28.5019L125.454 29.7381ZM127.478 30.6617C126.822 31.1566 126.044 31.5465 125.13 31.8229L125.71 33.7371C126.823 33.4002 127.818 32.9101 128.682 32.2583L127.478 30.6617ZM125.127 31.8239C124.217 32.1028 123.316 32.24 122.42 32.24V34.24C123.524 34.24 124.623 34.0705 125.713 33.7361L125.127 31.8239ZM126.12 31.04V25.78H124.12V31.04H126.12ZM125.12 26.78H128.08V24.78H125.12V26.78ZM127.08 25.78V31.46H129.08V25.78H127.08ZM128.22 30.4699L125.26 30.0499L124.98 32.0301L127.94 32.4501L128.22 30.4699ZM132.93 32.44L132.451 33.3179L132.456 33.3209L132.93 32.44ZM130.83 30.48L129.973 30.9965L129.978 31.0045L129.983 31.0125L130.83 30.48ZM130.83 24.76L129.979 24.2336L129.977 24.2374L130.83 24.76ZM132.93 22.8L133.398 23.6835L133.403 23.6809L132.93 22.8ZM139.03 22.8L138.556 23.681L138.567 23.6863L139.03 22.8ZM141.13 30.48L141.982 31.0026L141.986 30.9965L141.13 30.48ZM139.03 32.44L138.556 31.5591L139.03 32.44ZM137.39 30.24L137.892 31.1048L137.39 30.24ZM138.37 29.22L139.248 29.6989L139.253 29.6879L138.37 29.22ZM138.37 26.02L137.492 26.4989L138.37 26.02ZM137.39 25L136.888 25.8648L137.39 25ZM134.59 25L135.092 25.8648L134.59 25ZM133.59 26.02L132.723 25.521L132.717 25.531L132.712 25.5411L133.59 26.02ZM133.59 29.22L132.706 29.6879L132.714 29.7036L132.723 29.719L133.59 29.22ZM134.59 30.24L135.092 29.3752L134.59 30.24ZM135.99 32.16C134.986 32.16 134.133 31.9512 133.403 31.5591L132.456 33.3209C133.513 33.8888 134.7 34.16 135.99 34.16V32.16ZM133.409 31.5621C132.674 31.1617 132.103 30.6256 131.676 29.9475L129.983 31.0125C130.597 31.9877 131.425 32.7583 132.451 33.3179L133.409 31.5621ZM131.686 29.9635C131.281 29.2929 131.07 28.5211 131.07 27.62H129.07C129.07 28.8523 129.365 29.9871 129.973 30.9965L131.686 29.9635ZM131.07 27.62C131.07 26.7028 131.283 25.9345 131.682 25.2826L129.977 24.2374C129.363 25.2388 129.07 26.3772 129.07 27.62H131.07ZM131.68 25.2864C132.106 24.5984 132.673 24.0678 133.398 23.6835L132.461 21.9165C131.426 22.4656 130.594 23.2416 129.979 24.2336L131.68 25.2864ZM133.403 23.6809C134.133 23.2888 134.986 23.08 135.99 23.08V21.08C134.7 21.08 133.513 21.3512 132.456 21.9191L133.403 23.6809ZM135.99 23.08C136.978 23.08 137.825 23.2879 138.556 23.6809L139.503 21.9191C138.448 21.3521 137.268 21.08 135.99 21.08V23.08ZM138.567 23.6863C139.306 24.0727 139.869 24.5964 140.277 25.2626L141.982 24.2174C141.377 23.2302 140.54 22.4606 139.493 21.9137L138.567 23.6863ZM140.277 25.2626C140.675 25.9126 140.89 26.687 140.89 27.62H142.89C142.89 26.3664 142.597 25.2207 141.982 24.2174L140.277 25.2626ZM140.89 27.62C140.89 28.5211 140.678 29.2929 140.273 29.9635L141.986 30.9965C142.595 29.9871 142.89 28.8523 142.89 27.62H140.89ZM140.277 29.9574C139.867 30.6261 139.301 31.1589 138.556 31.5591L139.503 33.3209C140.545 32.7611 141.379 31.9872 141.982 31.0026L140.277 29.9574ZM138.556 31.5591C137.825 31.9521 136.978 32.16 135.99 32.16V34.16C137.268 34.16 138.448 33.8879 139.503 33.3209L138.556 31.5591ZM135.99 31.6C136.67 31.6 137.313 31.4411 137.892 31.1048L136.888 29.3752C136.64 29.5189 136.349 29.6 135.99 29.6V31.6ZM137.892 31.1048C138.471 30.7684 138.924 30.2913 139.248 29.6989L137.492 28.7411C137.335 29.0287 137.135 29.2316 136.888 29.3752L137.892 31.1048ZM139.253 29.6879C139.583 29.0647 139.73 28.3647 139.73 27.62H137.73C137.73 28.102 137.636 28.4686 137.486 28.7521L139.253 29.6879ZM139.73 27.62C139.73 26.8672 139.585 26.1604 139.248 25.5411L137.492 26.4989C137.634 26.7596 137.73 27.1195 137.73 27.62H139.73ZM139.248 25.5411C138.924 24.9487 138.471 24.4716 137.892 24.1352L136.888 25.8648C137.135 26.0084 137.335 26.2113 137.492 26.4989L139.248 25.5411ZM137.892 24.1352C137.313 23.7989 136.67 23.64 135.99 23.64V25.64C136.349 25.64 136.64 25.7211 136.888 25.8648L137.892 24.1352ZM135.99 23.64C135.309 23.64 134.667 23.7989 134.088 24.1352L135.092 25.8648C135.339 25.7211 135.63 25.64 135.99 25.64V23.64ZM134.088 24.1352C133.513 24.4686 133.058 24.9391 132.723 25.521L134.456 26.519C134.628 26.2209 134.839 26.0114 135.092 25.8648L134.088 24.1352ZM132.712 25.5411C132.374 26.1604 132.23 26.8672 132.23 27.62H134.23C134.23 27.1195 134.325 26.7596 134.468 26.4989L132.712 25.5411ZM132.23 27.62C132.23 28.3647 132.376 29.0647 132.706 29.6879L134.473 28.7521C134.323 28.4686 134.23 28.102 134.23 27.62H132.23ZM132.723 29.719C133.058 30.3009 133.513 30.7714 134.088 31.1048L135.092 29.3752C134.839 29.2286 134.628 29.0191 134.456 28.721L132.723 29.719ZM134.088 31.1048C134.667 31.4411 135.309 31.6 135.99 31.6V29.6C135.63 29.6 135.339 29.5189 135.092 29.3752L134.088 31.1048ZM146.035 32.44L145.556 33.3179L145.562 33.3209L146.035 32.44ZM143.935 30.48L143.079 30.9965L143.084 31.0045L143.089 31.0125L143.935 30.48ZM143.935 24.76L143.085 24.2336L143.083 24.2374L143.935 24.76ZM146.035 22.8L146.504 23.6835L146.508 23.6809L146.035 22.8ZM152.135 22.8L151.662 23.681L151.672 23.6863L152.135 22.8ZM154.235 30.48L155.088 31.0026L155.091 30.9965L154.235 30.48ZM152.135 32.44L151.662 31.5591L152.135 32.44ZM150.495 30.24L150.997 31.1048L150.495 30.24ZM151.475 29.22L152.353 29.6989L152.359 29.6879L151.475 29.22ZM151.475 26.02L150.597 26.4989L151.475 26.02ZM150.495 25L149.993 25.8648L150.495 25ZM147.695 25L148.197 25.8648L147.695 25ZM146.695 26.02L145.829 25.521L145.823 25.531L145.817 25.5411L146.695 26.02ZM146.695 29.22L145.811 29.6879L145.82 29.7036L145.829 29.719L146.695 29.22ZM147.695 30.24L148.197 29.3752L147.695 30.24ZM149.095 32.16C148.092 32.16 147.238 31.9512 146.508 31.5591L145.562 33.3209C146.619 33.8888 147.805 34.16 149.095 34.16V32.16ZM146.514 31.5621C145.78 31.1617 145.208 30.6256 144.782 29.9475L143.089 31.0125C143.702 31.9877 144.53 32.7583 145.556 33.3179L146.514 31.5621ZM144.791 29.9635C144.387 29.2929 144.175 28.5211 144.175 27.62H142.175C142.175 28.8523 142.47 29.9871 143.079 30.9965L144.791 29.9635ZM144.175 27.62C144.175 26.7028 144.388 25.9345 144.788 25.2826L143.083 24.2374C142.469 25.2388 142.175 26.3772 142.175 27.62H144.175ZM144.785 25.2864C145.211 24.5984 145.779 24.0678 146.504 23.6835L145.567 21.9165C144.531 22.4656 143.699 23.2416 143.085 24.2336L144.785 25.2864ZM146.508 23.6809C147.238 23.2888 148.092 23.08 149.095 23.08V21.08C147.805 21.08 146.619 21.3512 145.562 21.9191L146.508 23.6809ZM149.095 23.08C150.083 23.08 150.93 23.2879 151.662 23.6809L152.608 21.9191C151.553 21.3521 150.374 21.08 149.095 21.08V23.08ZM151.672 23.6863C152.412 24.0727 152.974 24.5964 153.383 25.2626L155.088 24.2174C154.483 23.2302 153.645 22.4606 152.598 21.9137L151.672 23.6863ZM153.383 25.2626C153.781 25.9126 153.995 26.687 153.995 27.62H155.995C155.995 26.3664 155.703 25.2207 155.088 24.2174L153.383 25.2626ZM153.995 27.62C153.995 28.5211 153.783 29.2929 153.379 29.9635L155.091 30.9965C155.7 29.9871 155.995 28.8523 155.995 27.62H153.995ZM153.383 29.9574C152.973 30.6261 152.407 31.1589 151.662 31.5591L152.608 33.3209C153.65 32.7611 154.484 31.9872 155.088 31.0026L153.383 29.9574ZM151.662 31.5591C150.93 31.9521 150.083 32.16 149.095 32.16V34.16C150.374 34.16 151.553 33.8879 152.608 33.3209L151.662 31.5591ZM149.095 31.6C149.776 31.6 150.418 31.4411 150.997 31.1048L149.993 29.3752C149.745 29.5189 149.455 29.6 149.095 29.6V31.6ZM150.997 31.1048C151.577 30.7684 152.03 30.2913 152.353 29.6989L150.597 28.7411C150.44 29.0287 150.24 29.2316 149.993 29.3752L150.997 31.1048ZM152.359 29.6879C152.689 29.0647 152.835 28.3647 152.835 27.62H150.835C150.835 28.102 150.741 28.4686 150.591 28.7521L152.359 29.6879ZM152.835 27.62C152.835 26.8672 152.691 26.1604 152.353 25.5411L150.597 26.4989C150.739 26.7596 150.835 27.1195 150.835 27.62H152.835ZM152.353 25.5411C152.03 24.9487 151.577 24.4716 150.997 24.1352L149.993 25.8648C150.24 26.0084 150.44 26.2113 150.597 26.4989L152.353 25.5411ZM150.997 24.1352C150.418 23.7989 149.776 23.64 149.095 23.64V25.64C149.455 25.64 149.745 25.7211 149.993 25.8648L150.997 24.1352ZM149.095 23.64C148.415 23.64 147.772 23.7989 147.193 24.1352L148.197 25.8648C148.445 25.7211 148.736 25.64 149.095 25.64V23.64ZM147.193 24.1352C146.619 24.4686 146.164 24.9391 145.829 25.521L147.562 26.519C147.733 26.2209 147.945 26.0114 148.197 25.8648L147.193 24.1352ZM145.817 25.5411C145.479 26.1604 145.335 26.8672 145.335 27.62H147.335C147.335 27.1195 147.431 26.7596 147.573 26.4989L145.817 25.5411ZM145.335 27.62C145.335 28.3647 145.481 29.0647 145.811 29.6879L147.579 28.7521C147.429 28.4686 147.335 28.102 147.335 27.62H145.335ZM145.829 29.719C146.164 30.3009 146.619 30.7714 147.193 31.1048L148.197 29.3752C147.945 29.2286 147.733 29.0191 147.562 28.721L145.829 29.719ZM147.193 31.1048C147.772 31.4411 148.415 31.6 149.095 31.6V29.6C148.736 29.6 148.445 29.5189 148.197 29.3752L147.193 31.1048ZM159.201 36.66L159.459 35.6939L159.45 35.6915L159.201 36.66ZM156.861 35.56L155.986 35.0757L155.574 35.8197L156.242 36.3457L156.861 35.56ZM158.101 33.32L158.736 32.5481L157.808 31.7836L157.226 32.8357L158.101 33.32ZM159.821 34.2L160.126 33.2477L160.115 33.2442L159.821 34.2ZM164.301 33.8L163.603 33.0835L163.594 33.0929L164.301 33.8ZM165.061 29.98L164.063 29.9061L164.061 29.943V29.98H165.061ZM165.261 27.28L166.258 27.3539L166.261 27.3096L166.261 27.2653L165.261 27.28ZM165.221 24.56H164.221V24.5674L164.221 24.5747L165.221 24.56ZM165.221 22.24V21.24H164.221V22.24H165.221ZM168.181 22.24H169.181V21.24H168.181V22.24ZM166.621 35.62L167.294 36.3595L166.621 35.62ZM158.941 31.84L158.459 32.7162L158.467 32.721L158.476 32.7255L158.941 31.84ZM157.001 30.02L156.147 30.5409L156.152 30.5494L156.158 30.5578L157.001 30.02ZM157.001 24.54L156.153 24.0087L156.151 24.0126L157.001 24.54ZM158.941 22.72L158.476 21.8344L158.47 21.8376L158.941 22.72ZM164.061 22.64L163.587 23.5205L163.593 23.524L163.6 23.5275L164.061 22.64ZM165.681 24.34L164.786 24.7872L164.789 24.7935L165.681 24.34ZM165.681 30.22L166.572 30.6735L166.575 30.6672L165.681 30.22ZM164.061 31.92L164.535 32.8005L164.061 31.92ZM163.741 29.6L164.188 30.4944L164.199 30.4889L164.21 30.4831L163.741 29.6ZM164.741 25.9L163.883 26.4145L163.887 26.421L163.891 26.4274L164.741 25.9ZM163.741 24.98L163.271 25.8631L163.282 25.8689L163.293 25.8744L163.741 24.98ZM160.821 24.98L161.268 25.8744L161.279 25.8689L161.29 25.8631L160.821 24.98ZM159.801 25.9L158.956 25.3649L158.951 25.3726L159.801 25.9ZM159.801 28.66L158.943 29.1745L158.949 29.1849L158.956 29.1951L159.801 28.66ZM160.821 29.6L160.351 30.4831L160.362 30.4889L160.373 30.4944L160.821 29.6ZM162.141 36.04C161.212 36.04 160.319 35.924 159.459 35.694L158.942 37.626C159.976 37.9027 161.043 38.04 162.141 38.04V36.04ZM159.45 35.6915C158.623 35.479 157.976 35.1657 157.479 34.7743L156.242 36.3457C156.998 36.9409 157.911 37.361 158.952 37.6285L159.45 35.6915ZM157.736 36.0443L158.976 33.8043L157.226 32.8357L155.986 35.0757L157.736 36.0443ZM157.465 34.0919C158.04 34.5653 158.737 34.9128 159.527 35.1558L160.115 33.2442C159.518 33.0605 159.068 32.8214 158.736 32.5481L157.465 34.0919ZM159.515 35.1522C160.312 35.4077 161.108 35.54 161.901 35.54V33.54C161.333 33.54 160.743 33.4457 160.126 33.2478L159.515 35.1522ZM161.901 35.54C163.122 35.54 164.242 35.2726 165.008 34.5071L163.594 33.0929C163.372 33.3141 162.892 33.54 161.901 33.54V35.54ZM164.998 34.5165C165.762 33.7729 166.061 32.739 166.061 31.6H164.061C164.061 32.4077 163.853 32.8405 163.603 33.0835L164.998 34.5165ZM166.061 31.6V29.98H164.061V31.6H166.061ZM166.058 30.0539L166.258 27.3539L164.263 27.2061L164.063 29.9061L166.058 30.0539ZM166.261 27.2653L166.221 24.5453L164.221 24.5747L164.261 27.2947L166.261 27.2653ZM166.221 24.56V22.24H164.221V24.56H166.221ZM165.221 23.24H168.181V21.24H165.221V23.24ZM167.181 22.24V31.2H169.181V22.24H167.181ZM167.181 31.2C167.181 33.0402 166.704 34.1921 165.947 34.8805L167.294 36.3595C168.618 35.1545 169.181 33.3598 169.181 31.2H167.181ZM165.947 34.8805C165.152 35.6045 163.934 36.04 162.141 36.04V38.04C164.24 38.04 166.009 37.5289 167.294 36.3595L165.947 34.8805ZM161.661 31.48C160.808 31.48 160.063 31.2994 159.405 30.9545L158.476 32.7255C159.445 33.2339 160.513 33.48 161.661 33.48V31.48ZM159.423 30.9638C158.77 30.6049 158.247 30.1149 157.844 29.4822L156.158 30.5578C156.741 31.4717 157.511 32.1951 158.459 32.7162L159.423 30.9638ZM157.854 29.4991C157.482 28.8888 157.281 28.1604 157.281 27.28H155.281C155.281 28.4796 155.559 29.5779 156.147 30.5409L157.854 29.4991ZM157.281 27.28C157.281 26.3832 157.483 25.6588 157.85 25.0674L156.151 24.0126C155.558 24.9679 155.281 26.0702 155.281 27.28H157.281ZM157.848 25.0713C158.251 24.4288 158.769 23.9448 159.411 23.6024L158.47 21.8376C157.512 22.3485 156.737 23.0779 156.153 24.0087L157.848 25.0713ZM159.405 23.6055C160.063 23.2606 160.808 23.08 161.661 23.08V21.08C160.513 21.08 159.445 21.3261 158.476 21.8345L159.405 23.6055ZM161.661 23.08C162.427 23.08 163.06 23.2368 163.587 23.5205L164.535 21.7595C163.675 21.2966 162.708 21.08 161.661 21.08V23.08ZM163.6 23.5275C164.086 23.7798 164.483 24.1816 164.786 24.7872L166.575 23.8928C166.105 22.9518 165.422 22.2202 164.521 21.7525L163.6 23.5275ZM164.789 24.7935C165.081 25.3676 165.261 26.1773 165.261 27.28H167.261C167.261 25.9827 167.053 24.8324 166.572 23.8865L164.789 24.7935ZM165.261 27.28C165.261 28.3661 165.083 29.1801 164.786 29.7728L166.575 30.6672C167.052 29.7132 167.261 28.5672 167.261 27.28H165.261ZM164.789 29.7665C164.487 30.3608 164.086 30.7708 163.587 31.0395L164.535 32.8005C165.422 32.3225 166.101 31.5992 166.572 30.6735L164.789 29.7665ZM163.587 31.0395C163.06 31.3232 162.427 31.48 161.661 31.48V33.48C162.708 33.48 163.675 33.2634 164.535 32.8005L163.587 31.0395ZM162.281 30.92C162.96 30.92 163.603 30.7867 164.188 30.4944L163.293 28.7056C163.025 28.84 162.695 28.92 162.281 28.92V30.92ZM164.21 30.4831C164.791 30.1744 165.261 29.7361 165.598 29.1745L163.883 28.1455C163.74 28.3839 163.544 28.5723 163.271 28.7169L164.21 30.4831ZM165.598 29.1745C165.942 28.6017 166.101 27.9599 166.101 27.28H164.101C164.101 27.6401 164.019 27.9183 163.883 28.1455L165.598 29.1745ZM166.101 27.28C166.101 26.5928 165.944 25.9432 165.59 25.3726L163.891 26.4274C164.017 26.6302 164.101 26.9005 164.101 27.28H166.101ZM165.598 25.3855C165.258 24.8186 164.781 24.3819 164.188 24.0856L163.293 25.8744C163.554 26.0047 163.743 26.1814 163.883 26.4145L165.598 25.3855ZM164.21 24.0969C163.621 23.7839 162.969 23.64 162.281 23.64V25.64C162.685 25.64 163.007 25.7228 163.271 25.8631L164.21 24.0969ZM162.281 23.64C161.592 23.64 160.941 23.7839 160.351 24.0969L161.29 25.8631C161.554 25.7228 161.876 25.64 162.281 25.64V23.64ZM160.373 24.0856C159.785 24.3796 159.307 24.81 158.956 25.3649L160.645 26.4351C160.801 26.19 161.003 26.007 161.268 25.8744L160.373 24.0856ZM158.951 25.3726C158.597 25.9432 158.441 26.5928 158.441 27.28H160.441C160.441 26.9005 160.524 26.6302 160.65 26.4274L158.951 25.3726ZM158.441 27.28C158.441 27.9599 158.599 28.6017 158.943 29.1745L160.658 28.1455C160.522 27.9183 160.441 27.6401 160.441 27.28H158.441ZM158.956 29.1951C159.304 29.7448 159.775 30.1767 160.351 30.4831L161.29 28.7169C161.013 28.5699 160.804 28.3752 160.645 28.1249L158.956 29.1951ZM160.373 30.4944C160.958 30.7867 161.601 30.92 162.281 30.92V28.92C161.866 28.92 161.537 28.84 161.268 28.7056L160.373 30.4944ZM171.085 33H170.085V34H171.085V33ZM171.085 18.16V17.16H170.085V18.16H171.085ZM174.205 18.16H175.205V17.16H174.205V18.16ZM174.205 33V34H175.205V33H174.205ZM172.085 33V18.16H170.085V33H172.085ZM171.085 19.16H174.205V17.16H171.085V19.16ZM173.205 18.16V33H175.205V18.16H173.205ZM174.205 32H171.085V34H174.205V32ZM179.2 32.44L178.738 33.3266L178.743 33.3293L179.2 32.44ZM177.06 30.48L176.204 30.9965L176.208 31.0026L177.06 30.48ZM177.04 24.76L176.184 24.2435L176.181 24.2475L177.04 24.76ZM179.1 22.8L179.574 23.6805L179.585 23.6748L179.1 22.8ZM184.88 22.76L184.405 23.64L184.414 23.6445L184.422 23.6488L184.88 22.76ZM186.9 24.68L186.038 25.1864L186.041 25.1925L186.9 24.68ZM187.62 28.08L188.616 28.1705L188.617 28.163L187.62 28.08ZM187.58 28.5V29.5H188.485L188.575 28.5995L187.58 28.5ZM178.84 28.5H177.84V29.5H178.84V28.5ZM178.84 26.68V25.68H177.84V26.68H178.84ZM185.94 26.68L186.351 27.5919L185.94 25.68V26.68ZM184.74 27.22H183.74V28.7666L185.151 28.1319L184.74 27.22ZM184.4 25.76L183.523 26.2408V26.2408L184.4 25.76ZM183.46 24.8L182.946 25.6575L182.956 25.6639L182.967 25.67L183.46 24.8ZM180.64 24.8L181.133 25.6701L181.142 25.6648L180.64 24.8ZM179.7 25.78L180.577 26.2609L180.583 26.2492L179.7 25.78ZM179.74 29.3L178.867 29.7878L178.876 29.8032L178.885 29.8183L179.74 29.3ZM180.84 30.32L180.383 31.2093L180.398 31.217L180.413 31.2242L180.84 30.32ZM184.02 30.4L183.654 29.4695L183.644 29.4735L184.02 30.4ZM185.22 29.62L185.955 28.9421L185.263 28.1909L184.527 28.8997L185.22 29.62ZM186.88 31.42L187.631 32.081L188.226 31.4047L187.615 30.7421L186.88 31.42ZM185.02 32.72L185.386 33.6508L185.393 33.6479L185.4 33.645L185.02 32.72ZM182.44 32.16C181.346 32.16 180.427 31.9466 179.658 31.5507L178.743 33.3293C179.84 33.8934 181.081 34.16 182.44 34.16V32.16ZM179.663 31.5534C178.892 31.1511 178.318 30.6188 177.913 29.9574L176.208 31.0026C176.816 31.9945 177.669 32.7689 178.738 33.3266L179.663 31.5534ZM177.916 29.9635C177.512 29.2929 177.3 28.5211 177.3 27.62H175.3C175.3 28.8523 175.595 29.9871 176.204 30.9965L177.916 29.9635ZM177.3 27.62C177.3 26.6979 177.509 25.9259 177.899 25.2725L176.181 24.2475C175.585 25.2474 175.3 26.3821 175.3 27.62H177.3ZM177.896 25.2765C178.31 24.5904 178.865 24.0625 179.574 23.6805L178.626 21.9195C177.602 22.4708 176.783 23.2496 176.184 24.2435L177.896 25.2765ZM179.585 23.6748C180.288 23.2852 181.098 23.08 182.04 23.08V21.08C180.795 21.08 179.646 21.3548 178.616 21.9252L179.585 23.6748ZM182.04 23.08C182.945 23.08 183.726 23.2734 184.405 23.64L185.355 21.88C184.354 21.34 183.242 21.08 182.04 21.08V23.08ZM184.422 23.6488C185.104 24.0008 185.639 24.507 186.038 25.1864L187.762 24.1736C187.175 23.173 186.362 22.3992 185.338 21.8712L184.422 23.6488ZM186.041 25.1925C186.425 25.8352 186.64 26.6434 186.64 27.66H188.64C188.64 26.3566 188.362 25.1782 187.759 24.1675L186.041 25.1925ZM186.64 27.66C186.64 27.7448 186.635 27.856 186.624 27.997L188.617 28.163C188.632 27.984 188.64 27.8152 188.64 27.66H186.64ZM186.624 27.9895C186.611 28.1334 186.598 28.2704 186.585 28.4005L188.575 28.5995C188.589 28.4629 188.602 28.3199 188.616 28.1705L186.624 27.9895ZM187.58 27.5H178.84V29.5H187.58V27.5ZM179.84 28.5V26.68H177.84V28.5H179.84ZM178.84 27.68H185.94V25.68H178.84V27.68ZM185.53 25.7681L184.33 26.3081L185.151 28.1319L186.351 27.5919L185.53 25.7681ZM185.74 27.22C185.74 26.5235 185.598 25.8653 185.277 25.2792L183.523 26.2408C183.655 26.4814 183.74 26.7965 183.74 27.22H185.74ZM185.277 25.2792C184.963 24.7073 184.519 24.2506 183.953 23.93L182.967 25.67C183.201 25.8027 183.384 25.986 183.523 26.2408L185.277 25.2792ZM183.975 23.9425C183.398 23.5965 182.748 23.44 182.06 23.44V25.44C182.439 25.44 182.722 25.5235 182.946 25.6575L183.975 23.9425ZM182.06 23.44C181.371 23.44 180.721 23.5967 180.138 23.9352L181.142 25.6648C181.386 25.5233 181.682 25.44 182.06 25.44V23.44ZM180.147 23.93C179.573 24.2553 179.128 24.7251 178.817 25.3108L180.583 26.2492C180.725 25.9815 180.907 25.798 181.133 25.67L180.147 23.93ZM178.823 25.2992C178.5 25.8886 178.36 26.5547 178.36 27.26H180.36C180.36 26.8187 180.447 26.4981 180.577 26.2608L178.823 25.2992ZM178.36 27.26V27.74H180.36V27.26H178.36ZM178.36 27.74C178.36 28.4749 178.52 29.1669 178.867 29.7878L180.613 28.8122C180.453 28.5264 180.36 28.1784 180.36 27.74H178.36ZM178.885 29.8183C179.249 30.4196 179.755 30.8865 180.383 31.2093L181.298 29.4307C180.992 29.2735 180.764 29.0604 180.595 28.7817L178.885 29.8183ZM180.413 31.2242C181.051 31.5256 181.762 31.66 182.52 31.66V29.66C181.998 29.66 181.589 29.5677 181.267 29.4158L180.413 31.2242ZM182.52 31.66C183.192 31.66 183.825 31.5587 184.397 31.3265L183.644 29.4735C183.362 29.588 182.995 29.66 182.52 29.66V31.66ZM184.387 31.3304C184.955 31.1064 185.465 30.7725 185.914 30.3403L184.527 28.8997C184.255 29.1608 183.965 29.3469 183.654 29.4696L184.387 31.3304ZM184.485 30.2979L186.145 32.0979L187.615 30.7421L185.955 28.9421L184.485 30.2979ZM186.13 30.759C185.746 31.1945 185.257 31.5418 184.64 31.795L185.4 33.645C186.277 33.2848 187.028 32.7655 187.631 32.081L186.13 30.759ZM184.655 31.7892C184.046 32.0282 183.314 32.16 182.44 32.16V34.16C183.513 34.16 184.501 33.9985 185.386 33.6508L184.655 31.7892Z" fill="black"/>
</svg>
